` PlantUML <plantuml.com> State Diagram.
` Generated from src/main/java/io/temporal/internal/statemachines/ContinueAsNewWorkflowStateMachine.java
` by io.temporal.internal.statemachines.CommandsGeneratePlantUMLStateDiagramsTest.


@startuml
title ContinueAsNewWorkflow State Transitions

[*] --> CREATED
CONTINUE_AS_NEW_WORKFLOW_COMMAND_CREATED --> CONTINUE_AS_NEW_WORKFLOW_COMMAND_CREATED: CONTINUE_AS_NEW_WORKFLOW_EXECUTION
CONTINUE_AS_NEW_WORKFLOW_COMMAND_CREATED --> CONTINUE_AS_NEW_WORKFLOW_COMMAND_RECORDED: WORKFLOW_EXECUTION_CONTINUED_AS_NEW
CREATED --> CONTINUE_AS_NEW_WORKFLOW_COMMAND_CREATED: SCHEDULE
CONTINUE_AS_NEW_WORKFLOW_COMMAND_RECORDED --> [*]
center footer Copyright (C) 2020 Temporal Technologies, Inc. All Rights Reserved.
@enduml
