` PlantUML <plantuml.com> State Diagram.
` Generated from src/main/java/io/temporal/internal/statemachines/UpsertSearchAttributesStateMachine.java
` by io.temporal.internal.statemachines.CommandsGeneratePlantUMLStateDiagramsTest.


@startuml
title UpsertSearchAttributes State Transitions

[*] --> CREATED
CREATED --> UPSERT_COMMAND_CREATED: SCHEDULE
UPSERT_COMMAND_CREATED --> UPSERT_COMMAND_CREATED: UPSERT_WORKFLOW_SEARCH_ATTRIBUTES
UPSERT_COMMAND_CREATED --> UPSERT_COMMAND_RECORDED: UPSERT_WORKFLOW_SEARCH_ATTRIBUTES
UPSERT_COMMAND_RECORDED --> [*]
center footer Copyright (C) 2020 Temporal Technologies, Inc. All Rights Reserved.
@enduml
